<svg viewBox="0 0 1591 391" fill="none" xmlns="http://www.w3.org/2000/svg">
<path fill-rule="evenodd" clip-rule="evenodd" d="M0 273.7V156.4H43.7525V117.3H88.8308V78.2H132.583V195.5H176.336V78.2H221.414V273.7H265.167V234.6H308.919V117.3H353.998V195.5H397.75V117.3H441.503V273.7H486.581V39.1H530.333V156.4H574.086V234.6H619.164V78.2H662.917V195.5H706.669V117.3H751.748V156.4H795.5H839.253V18.1981H884.331V78.2H928.083V117.3H971.836V351.9H1016.91V0H1060.67V312.8H1104.42H1149.5V117.3H1193.25V312.8H1237V273.7H1282.08V312.8H1325.83V0H1369.59V312.8H1414.66V273.7H1458.42V391H1502.17V351.9H1547.25V156.4H1591V0H1547.25H1502.17H1458.42H1414.66H1369.59H1325.83H1282.08H1237H1193.25H1149.5H1104.42H1060.67H1016.91H971.836H928.083L884.331 18.1981H839.253L795.5 0H751.748H706.669H662.917H619.164H574.086H530.333H486.581H441.503H397.75H353.998H308.919H265.167H221.414H176.336H132.583H88.8308H43.7525H0V273.7Z" fill="#0099FF"/>
</svg>
